<svg width="24" height="24" viewBox="0 0 24 24" fill="none" xmlns="http://www.w3.org/2000/svg">
<path d="M12 17V11" stroke="#E3E5E6" stroke-width="1.5" stroke-linecap="round"/>
<path d="M12 7C12.5523 7 13 7.44772 13 8C13 8.55228 12.5523 9 12 9C11.4477 9 11 8.55228 11 8C11 7.44772 11.4477 7 12 7Z" fill="#E3E5E6"/>
<path d="M7 3.33801C8.51945 2.45874 10.2445 1.99712 12 2.00001C17.523 2.00001 22 6.47701 22 12C22 17.523 17.523 22 12 22C6.477 22 2 17.523 2 12C2 10.179 2.487 8.47001 3.338 7.00001" stroke="#E3E5E6" stroke-width="1.5" stroke-linecap="round"/>
</svg>
