<svg width="24" height="24" viewBox="0 0 24 24" fill="none" xmlns="http://www.w3.org/2000/svg">
<path d="M2 12.026C2 17.172 5.867 21.413 10.847 21.986C11.582 22.071 12.294 21.758 12.817 21.233C13.1309 20.9181 13.3071 20.4916 13.3071 20.047C13.3071 19.6024 13.1309 19.1759 12.817 18.861C12.294 18.336 11.867 17.554 12.262 16.927C13.838 14.419 22 20.178 22 12.027C22 6.488 17.523 2 12 2C6.477 2 2 6.489 2 12.026Z" stroke="white" stroke-width="1.5"/>
<mask id="mask0_1593_2056" style="mask-type:luminance" maskUnits="userSpaceOnUse" x="16" y="10" width="3" height="3">
<path d="M19 11.5C19 11.8978 18.842 12.2794 18.5607 12.5607C18.2794 12.842 17.8978 13 17.5 13C17.1022 13 16.7206 12.842 16.4393 12.5607C16.158 12.2794 16 11.8978 16 11.5C16 11.1022 16.158 10.7206 16.4393 10.4393C16.7206 10.158 17.1022 10 17.5 10C17.8978 10 18.2794 10.158 18.5607 10.4393C18.842 10.7206 19 11.1022 19 11.5Z" fill="white"/>
</mask>
<g mask="url(#mask0_1593_2056)">
<path d="M17.5 10.75C17.6989 10.75 17.8896 10.8291 18.0303 10.9697C18.1709 11.1104 18.25 11.3011 18.25 11.5C18.25 11.6989 18.1709 11.8896 18.0303 12.0303C17.8896 12.1709 17.6989 12.25 17.5 12.25C17.3011 12.25 17.1104 12.1709 16.9697 12.0303C16.8291 11.8896 16.75 11.6989 16.75 11.5C16.75 11.3011 16.8291 11.1104 16.9697 10.9697C17.1104 10.8291 17.3011 10.75 17.5 10.75Z" stroke="white" stroke-width="1.5"/>
</g>
<mask id="mask1_1593_2056" style="mask-type:luminance" maskUnits="userSpaceOnUse" x="5" y="10" width="3" height="3">
<path d="M8 11.5C8 11.8978 7.84196 12.2794 7.56066 12.5607C7.27936 12.842 6.89782 13 6.5 13C6.10218 13 5.72064 12.842 5.43934 12.5607C5.15804 12.2794 5 11.8978 5 11.5C5 11.1022 5.15804 10.7206 5.43934 10.4393C5.72064 10.158 6.10218 10 6.5 10C6.89782 10 7.27936 10.158 7.56066 10.4393C7.84196 10.7206 8 11.1022 8 11.5Z" fill="white"/>
</mask>
<g mask="url(#mask1_1593_2056)">
<path d="M6.5 10.75C6.69891 10.75 6.88962 10.8291 7.03027 10.9697C7.17093 11.1104 7.25 11.3011 7.25 11.5C7.25 11.6989 7.17093 11.8896 7.03027 12.0303C6.88962 12.1709 6.69891 12.25 6.5 12.25C6.30109 12.25 6.11038 12.1709 5.96973 12.0303C5.82907 11.8896 5.75 11.6989 5.75 11.5C5.75 11.3011 5.82907 11.1104 5.96973 10.9697C6.11038 10.8291 6.30109 10.75 6.5 10.75Z" stroke="white" stroke-width="1.5"/>
</g>
<mask id="mask2_1593_2056" style="mask-type:luminance" maskUnits="userSpaceOnUse" x="8" y="5" width="4" height="4">
<path d="M11.085 7C11.085 7.39782 10.927 7.77936 10.6457 8.06066C10.3644 8.34196 9.98283 8.5 9.58501 8.5C9.18718 8.5 8.80565 8.34196 8.52435 8.06066C8.24304 7.77936 8.08501 7.39782 8.08501 7C8.08501 6.60218 8.24304 6.22064 8.52435 5.93934C8.80565 5.65804 9.18718 5.5 9.58501 5.5C9.98283 5.5 10.3644 5.65804 10.6457 5.93934C10.927 6.22064 11.085 6.60218 11.085 7Z" fill="white"/>
</mask>
<g mask="url(#mask2_1593_2056)">
<path d="M9.58501 6.25C9.78392 6.25 9.97463 6.32907 10.1153 6.46973C10.2559 6.61038 10.335 6.80109 10.335 7C10.335 7.19891 10.2559 7.38962 10.1153 7.53027C9.97463 7.67093 9.78392 7.75 9.58501 7.75C9.38609 7.75 9.19539 7.67093 9.05473 7.53027C8.91408 7.38962 8.83501 7.19891 8.83501 7C8.83501 6.80109 8.91408 6.61038 9.05473 6.46973C9.19539 6.32907 9.38609 6.25 9.58501 6.25Z" stroke="white" stroke-width="1.5"/>
</g>
<mask id="mask3_1593_2056" style="mask-type:luminance" maskUnits="userSpaceOnUse" x="13" y="5" width="3" height="4">
<path d="M16 7C16 7.39782 15.842 7.77936 15.5607 8.06066C15.2794 8.34196 14.8978 8.5 14.5 8.5C14.1022 8.5 13.7206 8.34196 13.4393 8.06066C13.158 7.77936 13 7.39782 13 7C13 6.60218 13.158 6.22064 13.4393 5.93934C13.7206 5.65804 14.1022 5.5 14.5 5.5C14.8978 5.5 15.2794 5.65804 15.5607 5.93934C15.842 6.22064 16 6.60218 16 7Z" fill="white"/>
</mask>
<g mask="url(#mask3_1593_2056)">
<path d="M14.5 6.25C14.6989 6.25 14.8896 6.32907 15.0303 6.46973C15.1709 6.61038 15.25 6.80109 15.25 7C15.25 7.19891 15.1709 7.38962 15.0303 7.53027C14.8896 7.67093 14.6989 7.75 14.5 7.75C14.3011 7.75 14.1104 7.67093 13.9697 7.53027C13.8291 7.38962 13.75 7.19891 13.75 7C13.75 6.80109 13.8291 6.61038 13.9697 6.46973C14.1104 6.32907 14.3011 6.25 14.5 6.25Z" stroke="white" stroke-width="1.5"/>
</g>
</svg>
