<svg width="24" height="24" viewBox="0 0 24 24" fill="none" xmlns="http://www.w3.org/2000/svg">
<path d="M13.5 2C13.5 2 15.834 2.212 18.803 5.182C21.773 8.152 21.985 10.485 21.985 10.485M14.207 5.536C14.207 5.536 15.197 5.818 16.682 7.303C18.167 8.788 18.45 9.778 18.45 9.778" stroke="#E3E5E6" stroke-width="1.5" stroke-linecap="round"/>
<path d="M15.645 15.5428L16.1 15.0628L15.012 14.0298L14.557 14.5108L15.645 15.5428ZM17.599 14.8608L19.509 15.9618L20.258 14.6608L18.347 13.5608L17.599 14.8608ZM19.878 18.2408L18.458 19.7358L19.545 20.7698L20.965 19.2748L19.878 18.2408ZM17.603 20.2158C16.168 20.3568 12.423 20.2368 8.359 15.9588L7.272 16.9908C11.701 21.6538 15.926 21.8898 17.75 21.7088L17.603 20.2158ZM8.359 15.9588C4.483 11.8778 3.833 8.43478 3.752 6.92478L2.254 7.00578C2.354 8.85578 3.138 12.6388 7.272 16.9908L8.359 15.9588ZM9.735 9.32078L10.021 9.01878L8.934 7.98578L8.647 8.28778L9.735 9.32078ZM10.247 5.25878L8.986 3.47678L7.761 4.34278L9.021 6.12578L10.247 5.25878ZM4.717 3.09078L3.149 4.74478L4.237 5.77778L5.807 4.12478L4.717 3.09078ZM9.191 8.80378C9.01103 8.63033 8.82936 8.45865 8.646 8.28878L8.644 8.29078L8.641 8.29378L8.591 8.35178C8.49308 8.4816 8.41552 8.62559 8.361 8.77878C8.263 9.05378 8.211 9.41778 8.277 9.87178C8.407 10.7638 8.992 11.9628 10.519 13.5718L11.607 12.5378C10.179 11.0348 9.827 10.1098 9.761 9.65378C9.729 9.43378 9.761 9.31878 9.774 9.28178L9.782 9.26278L9.754 9.29978L9.736 9.31978C9.736 9.31978 9.734 9.31978 9.191 8.80378ZM10.519 13.5718C12.042 15.1758 13.192 15.8048 14.069 15.9478C14.52 16.0208 14.885 15.9618 15.161 15.8528C15.3141 15.7931 15.4563 15.7086 15.582 15.6028L15.618 15.5688L15.632 15.5548L15.639 15.5488L15.642 15.5458L15.643 15.5438C15.643 15.5438 15.645 15.5428 15.101 15.0258C14.557 14.5098 14.558 14.5088 14.558 14.5078L14.56 14.5068L14.562 14.5038L14.567 14.4988L14.577 14.4888L14.614 14.4568C14.624 14.4515 14.6227 14.4518 14.61 14.4578C14.59 14.4658 14.5 14.4978 14.31 14.4668C13.908 14.4008 13.04 14.0468 11.607 12.5378L10.519 13.5718ZM8.986 3.47678C7.972 2.04278 5.944 1.79978 4.718 3.09178L5.804 4.12478C6.327 3.57478 7.249 3.61778 7.761 4.34278L8.986 3.47678ZM3.752 6.92478C3.73 6.52478 3.905 6.12578 4.237 5.77778L3.149 4.74478C2.613 5.30878 2.205 6.09178 2.254 7.00578L3.752 6.92478ZM18.457 19.7368C18.178 20.0308 17.887 20.1878 17.603 20.2158L17.75 21.7088C18.497 21.6358 19.102 21.2368 19.545 20.7698L18.457 19.7368ZM10.021 9.01978C10.989 8.00078 11.057 6.40678 10.247 5.25978L9.022 6.12578C9.444 6.72278 9.379 7.51778 8.934 7.98578L10.021 9.01978ZM19.509 15.9618C20.33 16.4348 20.491 17.5968 19.878 18.2418L20.965 19.2748C22.27 17.9008 21.89 15.6008 20.258 14.6608L19.509 15.9618ZM16.1 15.0638C16.485 14.6578 17.086 14.5668 17.599 14.8618L18.347 13.5618C17.248 12.9298 15.887 13.1118 15.012 14.0318L16.1 15.0638Z" fill="#E3E5E6"/>
</svg>
