<svg width="16" height="16" viewBox="0 0 16 16" fill="none" xmlns="http://www.w3.org/2000/svg">
<g clip-path="url(#clip0_1570_2898)">
<path d="M7.014 1.74927C7.13895 1.61199 7.2912 1.50232 7.46099 1.42728C7.63078 1.35224 7.81436 1.31348 8 1.31348C8.18563 1.31348 8.36921 1.35224 8.539 1.42728C8.70879 1.50232 8.86104 1.61199 8.986 1.74927L9.66599 2.49593C9.79803 2.64088 9.9604 2.75492 10.1415 2.82994C10.3227 2.90495 10.5181 2.9391 10.714 2.92993L11.7227 2.88327C11.908 2.87453 12.0932 2.90459 12.2662 2.9715C12.4393 3.03841 12.5965 3.14072 12.7278 3.27186C12.859 3.40301 12.9615 3.56011 13.0286 3.73312C13.0957 3.90613 13.1259 4.09124 13.1173 4.2766L13.07 5.28593C13.0608 5.48178 13.095 5.67724 13.17 5.85839C13.245 6.03953 13.3591 6.2019 13.504 6.33393L14.2507 7.01393C14.3879 7.13889 14.4976 7.29114 14.5726 7.46093C14.6477 7.63072 14.6865 7.8143 14.6865 7.99993C14.6865 8.18557 14.6477 8.36915 14.5726 8.53894C14.4976 8.70873 14.3879 8.86097 14.2507 8.98593L13.504 9.66593C13.3591 9.79796 13.245 9.96034 13.17 10.1415C13.095 10.3226 13.0608 10.5181 13.07 10.7139L13.1167 11.7226C13.1254 11.908 13.0953 12.0931 13.0284 12.2662C12.9615 12.4392 12.8592 12.5964 12.7281 12.7277C12.5969 12.859 12.4398 12.9614 12.2668 13.0285C12.0938 13.0956 11.9087 13.1258 11.7233 13.1173L10.714 13.0699C10.5181 13.0608 10.3227 13.0949 10.1415 13.1699C9.9604 13.2449 9.79803 13.359 9.66599 13.5039L8.986 14.2506C8.86104 14.3879 8.70879 14.4975 8.539 14.5726C8.36921 14.6476 8.18563 14.6864 8 14.6864C7.81436 14.6864 7.63078 14.6476 7.46099 14.5726C7.2912 14.4975 7.13895 14.3879 7.014 14.2506L6.334 13.5039C6.20197 13.359 6.03959 13.2449 5.85845 13.1699C5.6773 13.0949 5.48184 13.0608 5.286 13.0699L4.27733 13.1166C4.09198 13.1253 3.90684 13.0953 3.73377 13.0284C3.56069 12.9615 3.40349 12.8592 3.27222 12.728C3.14095 12.5969 3.03849 12.4398 2.97141 12.2667C2.90434 12.0937 2.87411 11.9086 2.88266 11.7233L2.93 10.7139C2.93916 10.5181 2.90501 10.3226 2.83 10.1415C2.75498 9.96034 2.64094 9.79796 2.496 9.66593L1.74933 8.98593C1.61205 8.86097 1.50238 8.70873 1.42734 8.53894C1.3523 8.36915 1.31354 8.18557 1.31354 7.99993C1.31354 7.8143 1.3523 7.63072 1.42734 7.46093C1.50238 7.29114 1.61205 7.13889 1.74933 7.01393L2.496 6.33393C2.64094 6.2019 2.75498 6.03953 2.83 5.85839C2.90501 5.67724 2.93916 5.48178 2.93 5.28593L2.88333 4.27727C2.8746 4.09191 2.90465 3.90678 2.97156 3.73371C3.03848 3.56063 3.14078 3.40343 3.27192 3.27216C3.40307 3.14089 3.56018 3.03843 3.73318 2.97135C3.90619 2.90427 4.0913 2.87405 4.27666 2.8826L5.286 2.92993C5.48184 2.9391 5.6773 2.90495 5.85845 2.82994C6.03959 2.75492 6.20197 2.64088 6.334 2.49593L7.014 1.74927Z" stroke="#6B4EFF"/>
<path d="M6 7.99984L7.33333 9.33317L10 6.6665" stroke="#6B4EFF" stroke-linecap="round" stroke-linejoin="round"/>
</g>
<defs>
<clipPath id="clip0_1570_2898">
<rect width="16" height="16" fill="white"/>
</clipPath>
</defs>
</svg>
