<svg width="24" height="24" viewBox="0 0 24 24" fill="none" xmlns="http://www.w3.org/2000/svg">
<path d="M3.518 10.306C3.13 9.232 2.936 8.695 3.018 8.351C3.109 7.974 3.377 7.681 3.719 7.583C4.032 7.493 4.519 7.71 5.492 8.143C6.352 8.525 6.782 8.716 7.187 8.706C7.633 8.694 8.061 8.516 8.402 8.199C8.712 7.912 8.919 7.455 9.334 6.541L10.249 4.525C11.013 2.842 11.395 2 12 2C12.605 2 12.987 2.842 13.751 4.525L14.666 6.541C15.081 7.455 15.289 7.912 15.598 8.199C15.939 8.515 16.368 8.694 16.813 8.706C17.217 8.716 17.648 8.525 18.508 8.142C19.482 7.71 19.968 7.493 20.281 7.583C20.623 7.681 20.891 7.974 20.981 8.351C21.064 8.695 20.87 9.231 20.481 10.306L18.814 14.922C18.1 16.897 17.744 17.884 16.997 18.442C16.25 19 15.285 19 13.356 19H10.644C8.714 19 7.75 19 7.004 18.442C6.257 17.884 5.9 16.897 5.186 14.922L3.518 10.306Z" stroke="#090A0A" stroke-width="1.5"/>
<path d="M12 14H12.009" stroke="#090A0A" stroke-width="1.5" stroke-linecap="round" stroke-linejoin="round"/>
<path d="M7 22H17" stroke="#090A0A" stroke-width="1.5" stroke-linecap="round"/>
</svg>
