<svg width="24" height="24" viewBox="0 0 24 24" fill="none" xmlns="http://www.w3.org/2000/svg">
<path d="M16 4C18.175 4.012 19.353 4.109 20.121 4.877C21 5.756 21 7.17 21 9.998V15.998C21 18.827 21 20.241 20.121 21.12C19.243 21.998 17.828 21.998 15 21.998H9C6.172 21.998 4.757 21.998 3.879 21.12C3 20.24 3 18.827 3 15.998V9.998C3 7.17 3 5.756 3.879 4.877C4.647 4.109 5.825 4.012 8 4" stroke="#E3E5E6" stroke-width="1.5"/>
<path d="M9 13.4L10.714 15L15 11" stroke="#E3E5E6" stroke-width="1.5" stroke-linecap="round" stroke-linejoin="round"/>
<path d="M8 3.5C8 3.10218 8.15804 2.72064 8.43934 2.43934C8.72064 2.15804 9.10218 2 9.5 2H14.5C14.8978 2 15.2794 2.15804 15.5607 2.43934C15.842 2.72064 16 3.10218 16 3.5V4.5C16 4.89782 15.842 5.27936 15.5607 5.56066C15.2794 5.84196 14.8978 6 14.5 6H9.5C9.10218 6 8.72064 5.84196 8.43934 5.56066C8.15804 5.27936 8 4.89782 8 4.5V3.5Z" stroke="#E3E5E6" stroke-width="1.5"/>
</svg>
